<svg width="435" height="983" viewBox="0 0 435 983" fill="none" xmlns="http://www.w3.org/2000/svg">
<path fill-rule="evenodd" clip-rule="evenodd" d="M122.837 384.34C124.847 388.228 126.403 391.444 127.815 394.292C129.176 397.163 130.367 399.681 131.572 402.218C133.936 407.313 136.329 412.472 140.143 420.696C143.629 428.611 147.393 437.036 150.585 444.866C151.484 446.667 152.518 449.244 153.558 451.916C154.607 454.587 155.694 457.337 156.631 459.523L157.141 461.299C157.796 462.801 158.529 464.578 159.035 466.146L158.955 466.064C159.904 468.319 160.789 470.934 161.26 472.054L161.183 471.974L162.224 474.757L161.986 474.299C163.534 478.276 164.964 482.429 166.191 486.103L166.263 485.739C167.546 489.677 168.448 492.355 169.335 494.935C170.217 497.514 171.067 500 172.113 503.59L172.039 503.508C173.704 507.934 174.688 511.542 175.721 515.167C176.772 518.79 177.73 522.474 179.297 527.091C178.905 525.938 179.349 527.619 179.279 527.537C180.58 531.828 181.911 536.43 182.26 536.408C183.105 539.567 182.842 539.007 182.818 539.458C182.966 539.396 183.769 542.122 184.446 544.582L184.079 543.465C184.723 545.816 185.4 548.16 186.017 550.519L185.952 549.052C186.827 552.834 185.841 550.101 186.822 553.684L187.052 553.577C188.301 558.798 188.757 561.928 189.773 567.025C194.741 588.02 200.022 610.631 203.107 630.494L203.075 631.401C202.871 631.827 204.435 636.786 204.319 637.584L204.849 639.866C204.916 640.517 205.097 641.89 204.839 640.755C205.183 642.889 205.23 642.933 205.565 644.455L205.771 646.772C207.049 655.199 208.437 662.318 209.703 671.202C210.89 681.916 213.903 701.975 215.35 713.579C215.935 717.66 216.438 721.865 216.552 726.209C216.584 727.292 216.619 728.382 216.656 729.477C216.649 730.573 216.641 731.675 216.634 732.778C216.641 734.986 216.555 737.206 216.458 739.431C216.089 748.327 215.254 757.24 214.612 765.608C214.565 765.878 214.523 766.366 214.498 766.787C214.476 767.206 214.468 767.558 214.485 767.556C213.92 772.645 213.234 777.72 212.481 782.785C212.481 782.785 211.804 787.394 210.776 793.403C209.782 799.422 208.308 806.816 207.076 812.45C206.462 815.255 205.939 817.632 205.592 819.218C205.278 820.791 205.193 821.557 205.473 821.131C205.961 820.263 208.283 814.698 211.581 800.836L211.566 801.223C213.333 792.952 214.191 787.686 214.736 781.878C214.984 781.449 215.236 779.73 215.479 777.876C215.71 776.023 215.89 774.03 216.076 773.057L216.084 773.245C216.453 768.098 217.516 762.714 217.687 757.731C217.697 757.926 217.789 758.04 217.692 759.18C218.007 755.57 218.197 750.611 218.448 750.356C218.695 746.032 218.901 740.844 218.938 736.036C218.931 733.633 218.876 731.323 218.819 729.272C218.691 727.215 218.554 725.419 218.408 724.033L218.485 724.41C218.311 722.832 218.155 721.811 218.088 720.74C217.987 719.672 217.955 718.535 217.672 716.798C217.679 716.605 217.665 716.354 217.679 716.394C217.053 713.009 216.475 706.443 216.057 703.697L216.178 703.501L215.288 696.719L215.581 699.259C215.08 698.429 215.169 694.098 214.287 689.209C213.747 684.597 212.201 679.993 211.737 675.194C211.239 672.944 212.312 677.156 211.7 673.774C211.886 673.632 212.047 675.345 212.087 674.445C211.539 671.115 211.495 668.939 210.744 664.843L210.878 664.65C209.79 659.327 209.557 654.488 208.682 650.967C207.651 645.463 208.543 647.186 207.297 641.479L207.128 639.209C206.73 636.746 206.556 637.494 206.179 634.751C206.343 634.893 205.681 631.287 206.088 632.861C205.243 626.649 203.531 620.404 202.334 612.234C201.761 610.52 201.07 606.424 200.612 605.153C200.678 604.912 198.964 596.995 200.141 601.513C200.242 601.902 200.379 602.598 200.327 602.558L200.589 603.074C199.933 598.405 198.748 594.723 197.767 590.171C198.015 591.529 198.421 593.321 198.054 592.144L197.145 587.914L197.467 588.766L196.161 582.455L196.194 583.357C195.599 580.257 195.638 579.11 194.588 575.7C194.095 574.164 195.059 578.659 194.248 575.43C193.361 571.307 192.167 565.097 190.851 559.876C190.797 560.409 190.447 559.001 190.048 557.567L190.16 557.361C188.552 551.875 189.989 555.242 188.433 549.788L188.663 550.244L187.972 548.877C186.336 544.017 187.573 546.126 185.68 540.751C186.289 542.912 185.613 541.864 184.961 539.176L185.291 539.812C184.862 538.34 184.666 537.865 184.433 536.874C184.75 537.731 184.773 537.28 184.163 535.114L184.743 536.519C184.277 535.176 183.829 533.828 183.338 532.493C182.587 529.291 180.947 524.343 180.783 522.987C180.783 522.987 180.305 521.285 179.772 519.389C179.21 517.504 178.528 515.44 178.181 514.699C178.739 516.014 177.649 512.273 178.142 513.284C177.443 511.581 175.726 506.452 175.26 504.329L175.399 504.715C174.274 500.872 173.127 497.643 172.046 494.501C170.966 491.362 169.92 488.319 168.82 484.897C168.753 485.266 167.601 481.648 167.685 482.612C166.347 479.145 165.371 475.897 164.471 473.25C163.567 470.604 162.806 468.537 162.003 467.405C160.811 464.241 160.757 463.594 160.182 461.944L160.501 462.685C158.194 456.782 157.523 455.07 155.811 450.689C154.872 448.533 154.455 448.303 152.927 444.383C153.568 445.592 152.892 444.011 152.295 442.554C152.696 443.476 152.86 443.746 152.158 441.798C152.012 441.545 151.819 441.139 151.638 440.757C151.64 440.738 151.616 440.656 151.645 440.693C150.605 438.28 150.741 438.718 151.187 439.853C151.142 439.806 151.157 439.91 151.266 440.274C150.416 437.672 148.3 433.274 148.394 432.878C146.843 429.245 145.394 426.18 144.021 423.263C142.633 420.357 141.315 417.596 139.903 414.635C139.702 413.914 140.438 415.267 141.275 416.982L139.293 412.759C139.466 412.722 140.497 415.153 141.127 416.447C139.087 411.27 136.067 406.173 133.455 400.206L132.736 399.052L132.588 398.695C132.531 398.744 131.797 397.476 131.354 396.621C131.079 395.729 131.688 396.524 130.259 393.635C129.233 391.298 126.918 387.207 125.315 384.276C126.125 385.884 125.781 385.411 125.382 384.747C124.626 383.322 124.324 382.432 123.687 381.359L123.794 381.129C123.92 381.778 121.648 377.501 121.296 377.013C121.001 376.131 122.577 379.164 122.864 379.469C119.831 373.755 121.34 376.617 118.241 370.947C116.451 367.991 118.372 371.586 117.428 370.226C115.951 367.562 114.34 365.064 112.73 361.96L113.119 363.01C110.212 358.089 108.435 355.168 106.664 351.743C100.89 342.788 97.4508 338.011 95.7336 335.746C94.0064 333.486 93.9371 333.776 94.6359 335.156C95.3222 336.541 96.7496 339.026 98.0059 341.162C99.2647 343.303 100.325 345.105 100.325 345.105C104.557 352.33 107.749 357.777 111.154 363.588C112.859 366.492 114.628 369.473 116.516 372.85C118.449 376.203 120.493 379.952 122.837 384.34Z" fill="#91A784"/>
<path fill-rule="evenodd" clip-rule="evenodd" d="M117.679 358.515C124.047 342.208 117.845 323.847 118.135 307.304C118.035 312.912 115.776 318.214 114.294 323.624C111.97 332.118 108.827 352.519 117.679 358.515Z" fill="#809971"/>
<path fill-rule="evenodd" clip-rule="evenodd" d="M87.8026 357.243C93.7918 358.137 99.3151 361.329 105.329 361.993C101.206 358.44 96.6265 355.394 91.74 352.956L96.6736 356.539C90.3896 353.509 83.8901 350.582 76.9841 350.141C73.7405 349.933 70.482 350.285 67.2434 349.953C62.124 349.425 57.354 347.227 52.75 344.811C60.4291 349.123 67.4268 355.122 76.0499 356.462C79.9403 357.067 83.9098 356.66 87.8026 357.243Z" fill="#809971"/>
<path fill-rule="evenodd" clip-rule="evenodd" d="M121.475 387.877C110.508 378.508 95.9478 371.89 82.6241 367.387C78.7709 366.084 74.7219 364.939 70.948 365.432C68.2545 365.784 65.8733 366.949 63.2343 367.472C55.8278 368.936 47.6581 365.232 40.2441 361.644C52.713 369.642 67.5161 371.627 81.6279 373.827C95.4571 375.986 109.524 379.011 121.475 387.877Z" fill="#809971"/>
<path fill-rule="evenodd" clip-rule="evenodd" d="M50.2871 413.163C57.032 410.74 64.1263 410.626 71.176 411.552C81.9376 412.965 92.3943 416.189 103.134 417.789C113.873 419.392 125.328 419.239 134.975 414.253C119.327 414.137 103.996 410.08 88.4322 408.472C75.7997 407.166 61.9135 407.469 50.2871 413.163Z" fill="#809971"/>
<path fill-rule="evenodd" clip-rule="evenodd" d="M136.258 412.098C137.106 404.488 140.733 397.572 144.946 391.301C150.558 382.948 157.256 374.887 159.508 365.079C160.832 359.313 160.492 353.175 158.542 347.59C158.966 358.059 151.842 367.074 146.227 375.918C139.197 386.994 135.141 398.93 136.258 412.098Z" fill="#809971"/>
<path fill-rule="evenodd" clip-rule="evenodd" d="M157.699 479.369C150.813 470.884 147.167 463.128 135.36 459.283C125.607 456.106 115.17 455.992 105.003 454.652C91.3177 452.848 77.9394 448.764 65.582 442.621C79.1734 452.516 93.3125 462.658 109.771 466.087C118.369 467.881 127.26 467.75 135.935 469.15C143.862 470.433 152.185 473.303 157.699 479.369Z" fill="#809971"/>
<path fill-rule="evenodd" clip-rule="evenodd" d="M171.268 438.009C169.96 445.564 169.224 453.238 169.46 460.912C169.643 467.03 172.448 474.439 170.565 480.289C176.745 469.265 175.354 455.689 178.202 443.715C179.864 436.718 182.89 430.015 183.618 422.859C184.6 413.225 181.353 403.303 183.75 393.919C179.944 408.784 173.912 422.762 171.268 438.009Z" fill="#809971"/>
<path fill-rule="evenodd" clip-rule="evenodd" d="M154.593 408.158C152.269 416.028 151.858 424.452 153.399 432.511L152.143 425.436C152.727 430.863 153.307 436.287 153.89 441.714C154.893 427.676 160.969 414.595 165.821 401.386C170.673 388.176 174.377 373.685 170.509 360.153C171.448 368.632 168.581 377.072 164.986 384.808C161.39 392.544 157.004 399.976 154.593 408.158Z" fill="#809971"/>
<path fill-rule="evenodd" clip-rule="evenodd" d="M150.088 459.372L146.787 450.801C137.542 438.614 122.362 432.184 107.254 429.783C92.1465 427.382 76.7387 428.485 61.4401 428.475C56.9748 428.472 52.4279 428.348 48.0098 427.697C63.4918 431.56 79.6578 432.819 95.4644 435.44C115.419 438.751 135.988 444.874 150.088 459.372Z" fill="#809971"/>
<path fill-rule="evenodd" clip-rule="evenodd" d="M157.571 519.261C152.482 516.845 146.832 515.923 141.257 515.105C135.206 514.221 129.142 513.425 123.066 512.724C146.817 519.006 161.509 540.16 183.379 549.447C176.979 538.212 169.763 525.054 157.571 519.261Z" fill="#809971"/>
<path fill-rule="evenodd" clip-rule="evenodd" d="M196.842 433.05C194.946 437.632 191.977 441.676 189.507 445.975C184.66 454.413 181.833 463.965 181.102 473.654C180.735 478.503 180.894 483.394 181.585 488.204C182.031 491.299 183.719 495.184 183.865 498.455C185.478 486.184 195.333 475.646 198.978 463.99C202.132 453.892 201.356 442.618 196.842 433.05Z" fill="#809971"/>
<path fill-rule="evenodd" clip-rule="evenodd" d="M147.181 501.803C152.789 503.322 158.587 503.052 164.098 505.015C167.314 506.16 170.288 508.055 173.494 509.123C167.74 502.755 161.176 495.217 153.792 490.64C142.599 483.7 127.481 484.081 116.576 477.465C126.607 486.257 134.442 498.354 147.181 501.803Z" fill="#809971"/>
<path fill-rule="evenodd" clip-rule="evenodd" d="M197.886 508.58C201.149 502.73 205.302 497.417 208.422 491.49C213.521 481.811 215.717 470.596 214.649 459.686C210.553 469.803 203.377 478.312 198.285 487.956C193.643 496.751 190.786 506.491 189.882 516.415C189.882 522.578 189.879 528.738 189.877 534.903C190.64 525.683 193.391 516.638 197.886 508.58Z" fill="#809971"/>
<path fill-rule="evenodd" clip-rule="evenodd" d="M140.537 360.255C144.863 353.505 147.993 344.996 145.037 336.985L143.629 336.323C144.132 342.134 142.234 347.719 139.595 352.663C136.954 357.606 133.564 362.074 130.764 366.921C128.393 371.024 126.413 375.931 127.984 380.708C130.608 373.036 136.211 367.005 140.537 360.255Z" fill="#809971"/>
<path fill-rule="evenodd" clip-rule="evenodd" d="M83.1309 296C87.4647 301.808 88.3519 309.641 89.2018 316.931C90.0369 324.1 91.2982 331.863 95.8824 337.2C95.7064 334.071 95.7337 330.934 95.5032 327.799C94.6632 316.326 90.2078 304.876 83.1309 296Z" fill="#809971"/>
<path fill-rule="evenodd" clip-rule="evenodd" d="M70.89 325.787C74.1658 330.607 78.1876 334.99 83.022 337.486C87.1824 339.629 92.0044 340.191 95.9691 338.477C95.9418 338.113 95.9146 337.751 95.8923 337.386C91.7913 335.531 87.3459 335.104 83.302 333.045C75.7691 329.204 70.5531 320.182 62.9434 316.849C66.2985 318.497 68.588 322.395 70.89 325.787Z" fill="#809971"/>
<path fill-rule="evenodd" clip-rule="evenodd" d="M89.1131 331.284C87.4752 329.056 86.1471 326.489 84.9974 323.912C83.0646 319.578 81.4613 315.031 78.8892 311.106C76.2428 307.065 72.6152 303.814 68.5762 301.871C73.8195 309.741 79.0652 317.613 84.3085 325.483C85.7159 327.594 87.2472 329.787 89.1131 331.284Z" fill="#809971"/>
<path fill-rule="evenodd" clip-rule="evenodd" d="M81.5012 390.004C73.0019 387.923 63.5237 386.696 55.3516 388.931C66.6856 388.718 77.1004 393.342 87.7976 396.269C99.652 399.51 112.559 400.734 125.013 399.79L126.238 399.168C120.32 397.057 113.454 397.086 106.977 396.202C98.1726 395.002 89.9979 392.086 81.5012 390.004Z" fill="#809971"/>
<path fill-rule="evenodd" clip-rule="evenodd" d="M327.202 747.321C325.653 749.141 324.309 750.592 323.201 751.939C322.119 753.295 321.115 754.467 320.165 755.682C319.243 756.914 318.323 758.163 317.278 759.616C316.289 761.116 315.146 762.789 313.886 764.926C311.358 768.946 309.013 773.433 306.951 777.581C306.234 779.672 304.302 783.044 303.483 785.527L302.939 786.382C302.618 787.228 302.265 788.215 301.864 789.013L301.831 788.945C301.438 790.222 300.782 791.588 300.585 792.224L300.577 792.155C300.364 792.658 300.202 793.165 299.99 793.675L300.03 793.393C299.329 795.611 298.455 797.845 297.672 799.806L297.909 799.705C296.252 803.9 296.006 805.558 294.552 809.369L294.519 809.303C293.414 814.337 291.817 816.982 290.837 822.216C290.931 821.562 290.668 822.466 290.635 822.4C290.053 824.776 289.414 827.303 289.754 827.429C289.316 829.148 289.299 828.805 289.098 828.995C289.251 829.026 288.963 830.539 288.629 831.891L288.726 831.255L287.854 835.129L288.318 834.441C287.743 836.469 287.848 834.876 287.467 836.862L287.72 836.891C287.045 839.725 286.265 841.304 285.527 844.036C283.016 855.508 281.568 868.036 279.533 878.747L279.279 879.195C278.977 879.362 279.249 882.229 278.938 882.605L278.88 883.877C278.782 884.222 278.621 884.958 278.65 884.325C278.473 885.483 278.512 885.518 278.474 886.364L278.132 887.587C277.361 892.148 277.156 896.087 276.446 900.898C275.329 906.642 274.208 917.58 273.561 923.883C272.799 932.762 270.359 942.883 269.631 951.98C269.552 952.269 269.54 953.042 269.569 953.041L268.437 961.306C268.437 961.306 263.028 1001.39 269.313 971.225L269.344 971.436C270.089 966.928 270.498 964.082 270.612 960.922C271.042 960.477 271.14 957.21 271.399 956.167L271.416 956.269C271.497 953.471 272.4 950.614 272.5 947.918C272.516 948.026 272.607 948.097 272.535 948.71C272.746 946.764 273.016 944.102 273.246 943.987C273.802 939.347 274.758 932.896 274.81 929.884L274.841 930.095C274.837 928.373 275.098 927.901 275.231 925.995C275.274 925.895 275.303 925.764 275.313 925.785C275.33 923.913 275.988 920.407 276.091 918.904L276.243 918.826L276.694 915.155L276.485 916.522C276.158 915.995 277.094 913.778 277.195 911.084C277.572 908.601 277.056 905.929 277.59 903.366C277.571 902.111 277.741 904.494 277.845 902.631C278.055 902.598 277.858 903.508 278.084 903.056C278.225 901.234 278.684 900.116 278.85 897.867L279.019 897.799C279.121 894.848 279.971 892.337 279.968 890.362C280.257 887.348 280.706 888.417 280.846 885.254L281.235 884.07C281.464 882.741 281.114 883.079 281.431 881.615C281.552 881.724 281.807 879.761 281.808 880.644C282.52 877.332 282.519 873.807 283.582 869.467C283.484 868.47 283.99 866.284 283.923 865.535C284.035 865.434 284.703 861.113 284.513 863.633C284.49 863.851 284.436 864.224 284.382 864.193L284.496 864.514C285.219 862.066 285.134 859.944 285.604 857.475C285.419 858.202 285.264 859.179 285.282 858.508L285.7 856.217L285.761 856.717L286.467 853.315L286.221 853.757C286.617 852.1 287.001 851.564 287.139 849.637C287.181 848.763 286.603 851.173 286.91 849.406C287.489 847.202 288.28 843.89 288.983 841.072C288.736 841.297 288.917 840.536 289.045 839.747L289.237 839.688C289.686 836.637 289.811 838.666 290.314 835.646L290.349 835.936L290.218 835.074C290.555 832.324 290.9 833.707 291.196 830.632C290.942 831.814 290.729 831.101 291.153 829.669L291.202 830.075C291.353 829.265 291.368 828.981 291.528 828.454C291.49 828.956 291.665 828.76 291.97 827.581L291.947 828.413L292.266 826.129C292.885 824.463 293.394 821.694 293.79 821.057C293.79 821.057 294.968 817.434 294.982 816.531C294.903 817.307 295.556 815.307 295.533 815.934C295.635 814.933 296.388 812.122 296.908 811.067L296.884 811.282C298.308 807.228 298.963 804.221 300.446 800.642C300.183 800.741 301.027 798.87 300.626 799.259C301.828 795.431 303.656 792.628 303.56 791.032C304.226 789.338 304.546 789.101 304.942 788.258L304.817 788.668C306.156 785.54 306.491 784.608 307.635 782.341C308.116 781.173 307.876 780.845 308.953 778.841C308.741 779.553 309.138 778.716 309.52 777.967C309.281 778.459 309.252 778.629 309.859 777.679C309.89 777.523 309.962 777.299 310.061 777.085C310.061 777.082 310.106 777.047 310.109 777.071C310.702 775.798 310.551 775.996 310.247 776.57C310.242 776.531 310.172 776.569 310.067 776.729C310.467 776.121 310.929 775.21 311.335 774.447C311.767 773.695 312.117 773.09 312.264 773.067C313.258 771.2 314.081 769.568 314.919 768.057C315.755 766.532 316.525 765.072 317.465 763.58C317.782 763.312 317.424 764.062 316.909 764.945L318.221 762.824C318.36 762.936 317.527 764.082 317.134 764.747C318.064 763.577 318.824 762.245 319.679 760.875C320.538 759.533 321.439 758.122 322.572 756.78L322.891 756.126L323.047 755.975C322.968 755.942 323.384 755.259 323.681 754.836C324.094 754.536 323.935 755.072 324.99 753.699C325.914 752.687 327.414 750.673 328.486 749.238C327.851 749.96 327.99 749.666 328.221 749.313C328.763 748.64 329.231 748.392 329.64 747.855L329.849 747.93C329.464 748.052 331.226 746.135 331.39 745.843C331.833 745.586 330.573 746.917 330.502 747.153C332.861 744.604 331.64 745.842 334.112 743.409C335.313 742.011 333.725 743.509 334.233 742.765C334.81 742.185 335.358 741.564 335.962 740.99C336.566 740.419 337.219 739.84 337.972 739.265L337.405 739.525C339.608 737.342 341.127 736.294 342.858 735.138C343.938 734.174 344.969 733.426 345.828 732.696C346.715 731.983 347.483 731.329 348.172 730.843C349.545 729.823 350.502 729.081 351.089 728.57C352.287 727.554 352.101 727.46 351.285 727.727C350.498 728.028 349.089 728.753 347.871 729.407C346.65 730.034 345.706 730.684 345.706 730.684C343.761 731.926 342.023 733.021 340.55 734.24C339.8 734.837 339.072 735.418 338.345 735.997C337.619 736.59 336.973 737.229 336.276 737.856C335.605 738.488 334.91 739.132 334.193 739.802C333.53 740.502 332.821 741.231 332.091 741.997C330.552 743.497 329.052 745.306 327.202 747.321Z" fill="#91A784"/>
<path fill-rule="evenodd" clip-rule="evenodd" d="M269.823 938.792L271.412 941.279C273.209 940.364 275.133 939.661 277.045 938.989C295.896 932.363 315.377 927.547 335.116 924.634C323.532 921.373 311.428 918.967 299.515 920.562C287.576 922.158 275.75 928.318 269.823 938.792Z" fill="#809971"/>
<path fill-rule="evenodd" clip-rule="evenodd" d="M253.33 914.172C247.344 902.327 242.337 889.57 242.321 876.303C241.985 882.491 240.568 888.577 240.138 894.758C238.568 917.27 251.477 940.136 271.564 950.42L270.994 949.806C266.367 937.372 259.31 926.013 253.33 914.172Z" fill="#809971"/>
<path fill-rule="evenodd" clip-rule="evenodd" d="M335.46 892.057C322.014 886.656 307.858 881.154 293.452 882.77C287.566 883.431 281.466 885.56 277.866 890.211L277.817 890.178C274.413 881.124 266.618 874.609 260.206 867.367C250.173 856.039 242.953 841.509 243.275 826.381C241.516 839.681 244.059 853.519 250.432 865.327C256.807 877.134 266.975 886.85 279.062 892.678C279.92 893.095 280.971 893.483 281.781 892.981L278.872 890.922C283.918 886.887 297.194 894.948 303.741 895.615C324.828 897.777 339.317 895.618 357.937 905.745C352.28 898.917 343.68 895.362 335.46 892.057Z" fill="#809971"/>
<path fill-rule="evenodd" clip-rule="evenodd" d="M343.256 859.978C332.613 850.972 310.797 851.808 310.797 851.808C303.316 849.648 293.074 851.42 285.285 851.63L286.227 855.237C286.632 853.447 289.273 852.998 290.919 853.797C318.817 867.315 342.803 868.08 367.278 879.131C362.947 869.479 351.335 866.81 343.256 859.978Z" fill="#809971"/>
<path fill-rule="evenodd" clip-rule="evenodd" d="M284.144 857.781C284.653 856.845 286.461 855.105 285.878 854.217C284.093 849.032 280.678 844.605 277.423 840.197C266.902 825.937 257.579 810.8 249.574 794.991C249.726 808.022 255.011 820.607 262.536 831.244C270.066 841.884 274.233 849.326 284.144 857.781Z" fill="#809971"/>
<path fill-rule="evenodd" clip-rule="evenodd" d="M286.987 818.728C289.194 820.439 291.402 822.151 293.609 823.859L292.127 821.555C287.123 810.485 277.52 802.218 270.974 791.972C266.98 785.712 263.765 778.335 257.237 774.797C256.834 783.999 260.887 792.953 266.622 800.158C272.363 807.365 279.728 813.081 286.987 818.728Z" fill="#809971"/>
<path fill-rule="evenodd" clip-rule="evenodd" d="M336.478 828.358C321.264 827.057 304.929 826.182 292.824 816.858C301.436 830.066 314.677 834.412 330.292 836.537C345.906 838.661 364.471 836.352 378.165 844.182C368.296 832.529 351.692 829.66 336.478 828.358Z" fill="#809971"/>
<path fill-rule="evenodd" clip-rule="evenodd" d="M300.209 791.404C301.46 792.031 303.09 792.088 304.149 791.162L301.38 791.175C301.178 790.548 300.978 789.934 300.753 789.322L301.853 790.355C310.028 790.443 315.533 798.48 322.643 802.507C336.729 810.477 355.736 802.011 370.067 809.537C364.151 803.65 355.968 800.642 347.903 798.602C339.814 796.564 331.47 795.304 323.741 792.134C319.902 790.551 316.23 788.498 312.204 787.432C308.282 786.395 303.844 786.441 300.497 788.665C296.461 778.365 288.261 770.132 280.287 762.326C276.371 758.49 272.184 754.486 266.82 753.317C276.906 765.088 287.014 776.856 297.098 788.63C298.002 789.69 298.959 790.776 300.209 791.404Z" fill="#809971"/>
<path fill-rule="evenodd" clip-rule="evenodd" d="M351.262 771.264C338.553 768.813 325.594 766.359 312.707 767.535C307.591 750.473 301.698 732.769 288.484 720.923C294.447 736.543 301.53 751.734 309.664 766.341C310.942 768.618 312.276 770.936 314.301 772.589C316.386 774.318 319.063 775.18 321.713 775.819C340.264 780.311 360.777 775.566 378.174 783.463C371.913 775.576 361.157 773.167 351.262 771.264Z" fill="#809971"/>
<path fill-rule="evenodd" clip-rule="evenodd" d="M323.197 755.782C323.562 756.109 324.111 756.111 324.609 756.1C341.056 755.651 357.503 755.205 373.95 754.755C358.353 749.109 341.139 747.992 324.951 751.567L325.228 748.737C323.548 740.75 321.893 732.757 319.873 724.849C317.865 717.034 315.006 708.592 308.082 704.454C312.963 721.233 317.82 738.018 322.702 754.799C322.821 755.156 322.917 755.537 323.197 755.782Z" fill="#809971"/>
<path fill-rule="evenodd" clip-rule="evenodd" d="M338.787 739.607C339.334 739.994 340.079 739.762 340.701 739.539C343.809 738.423 347.134 737.848 350.455 737.852C356.198 737.858 362.581 739.421 367.265 736.09C358.564 734.157 349.645 733.293 340.76 733.517L340.154 731.829C344.901 722.301 346.67 711.299 345.103 700.767C335.623 710.588 332.802 726.246 338.233 738.761C338.372 739.076 338.513 739.406 338.787 739.607Z" fill="#809971"/>
<path fill-rule="evenodd" clip-rule="evenodd" d="M380.435 693.293C381.253 692.032 382.045 690.349 381.172 689.131C380.51 688.216 379.144 688.069 378.099 688.502C377.053 688.932 376.261 689.801 375.517 690.654C365.229 702.43 356.811 715.811 350.61 730.171L352.032 729.957C361.167 724.653 370.721 720.118 380.603 716.415C373.185 716.392 365.808 718.327 359.366 721.979C358.199 722.644 356.793 723.388 355.576 722.831C365.065 714.104 373.454 704.149 380.435 693.293Z" fill="#809971"/>
<path fill-rule="evenodd" clip-rule="evenodd" d="M304.593 719.868L304.527 719.906C304.551 719.895 304.573 719.885 304.593 719.868Z" fill="#50614A"/>
<path fill-rule="evenodd" clip-rule="evenodd" d="M340.188 723.267L340.107 723.278C340.137 723.279 340.165 723.277 340.188 723.267Z" fill="#50614A"/>
<path fill-rule="evenodd" clip-rule="evenodd" d="M338.37 724.596L338.369 724.594L338.344 724.598L338.37 724.596Z" fill="#50614A"/>
<path fill-rule="evenodd" clip-rule="evenodd" d="M318.274 681.685L318.264 681.769C318.278 681.743 318.29 681.713 318.274 681.685Z" fill="#50614A"/>
<path fill-rule="evenodd" clip-rule="evenodd" d="M318.551 682.738L318.579 682.738C318.574 682.73 318.551 682.738 318.551 682.738Z" fill="#50614A"/>
<path fill-rule="evenodd" clip-rule="evenodd" d="M311.137 682.816L310.893 683.105C310.926 683.112 311.002 683.04 311.137 682.816Z" fill="#50614A"/>
<path fill-rule="evenodd" clip-rule="evenodd" d="M315.448 720.752L315.512 720.71C315.467 720.733 315.446 720.747 315.448 720.752Z" fill="#50614A"/>
<path fill-rule="evenodd" clip-rule="evenodd" d="M301.602 694.834L301.619 694.813L301.652 694.719L301.602 694.834Z" fill="#50614A"/>
<path fill-rule="evenodd" clip-rule="evenodd" d="M320.513 690.398L320.314 690.459C320.35 690.471 320.383 690.478 320.513 690.398Z" fill="#50614A"/>
<path fill-rule="evenodd" clip-rule="evenodd" d="M290.873 724.537L290.867 724.576C290.88 724.548 290.873 724.537 290.873 724.537Z" fill="#50614A"/>
<path fill-rule="evenodd" clip-rule="evenodd" d="M313.48 692.735L313.479 692.732C313.497 692.713 313.494 692.709 313.513 692.69L313.48 692.735Z" fill="#50614A"/>
<path fill-rule="evenodd" clip-rule="evenodd" d="M172.409 654.788C172.429 654.843 172.45 654.901 172.469 654.95C172.433 654.835 172.419 654.8 172.409 654.788Z" fill="#91A784"/>
<path fill-rule="evenodd" clip-rule="evenodd" d="M144.62 503.464C144.636 503.441 144.631 503.432 144.626 503.423C144.62 503.363 144.613 503.298 144.632 503.229L144.62 503.464Z" fill="#91A784"/>
<path fill-rule="evenodd" clip-rule="evenodd" d="M258.147 592.345C258.168 592.279 258.184 592.206 258.206 592.142C258.167 592.279 258.163 592.322 258.147 592.345Z" fill="#91A784"/>
<path fill-rule="evenodd" clip-rule="evenodd" d="M247.623 768.108C247.625 768.127 247.626 768.138 247.628 768.151C247.646 768.219 247.661 768.297 247.675 768.359L247.623 768.108Z" fill="#91A784"/>
<path fill-rule="evenodd" clip-rule="evenodd" d="M254.61 809.531C253.509 804.124 252.897 800.69 252.244 797.216C251.668 793.723 251.158 790.17 250.11 784.554C249.125 779.196 248.366 773.43 247.628 768.15C247.327 766.913 247.099 765.177 246.869 763.385C246.751 762.489 246.631 761.58 246.516 760.706C246.414 759.833 246.319 758.999 246.193 758.258L246.245 757.086C246.065 756.069 245.906 754.867 245.898 753.825L245.959 753.88C245.705 752.355 245.622 750.616 245.486 749.863L245.545 749.916L245.339 748.064L245.43 748.379C245.106 745.704 244.741 742.956 244.724 740.51L244.553 740.724C244.501 735.495 244.013 733.61 244.04 728.88L244.079 728.948C243.878 727.466 243.789 726.126 243.719 724.873C243.673 723.612 243.731 722.428 243.755 721.238C243.829 718.85 243.895 716.45 243.616 713.39C243.696 714.148 243.719 713.057 243.756 713.122C243.692 710.287 243.637 707.261 243.261 707.218C243.231 705.161 243.392 705.547 243.53 705.275C243.362 705.289 243.362 703.491 243.408 701.876L243.449 702.617L243.542 698.001L243.206 698.9C243.365 696.458 243.591 698.293 243.598 695.941L243.347 695.963C243.5 692.584 243.923 690.605 244.261 687.345C244.547 683.943 244.774 680.488 245.01 676.999C245.253 673.521 245.336 670.02 245.769 666.567C246.136 663.101 246.496 659.675 246.876 656.335C247.09 654.657 247.262 653.006 247.508 651.383C247.81 649.756 248.104 648.166 248.414 646.604L248.676 646.088C248.998 645.884 248.836 642.567 249.169 642.126L249.268 640.655C249.388 640.249 249.575 639.396 249.525 640.13C249.752 638.783 249.703 638.748 249.785 637.761L250.179 636.348C250.626 633.691 251.168 631.251 251.594 628.764C252.051 626.277 252.513 623.75 253.104 620.987C253.567 619.335 253.96 617.301 254.52 615.1C255.106 612.892 255.7 610.495 256.281 608.073C257.475 603.235 258.46 598.287 259.544 594.744C260.189 592.23 260.966 589.639 261.806 587.004C262.23 585.695 262.671 584.363 263.109 583.026L263.781 581.021L264.555 579.042C266.615 573.772 268.62 568.457 270.236 563.385C270.388 563.087 270.655 562.22 270.622 562.213L274.358 553.21C274.358 553.21 275.466 550.482 276.936 546.898C278.558 543.378 280.524 539.023 281.964 535.644C284.826 528.907 285.56 526.034 276.846 541.911L276.909 541.662C274.418 546.431 273.207 549.596 272.063 553.134C271.499 553.53 270.366 557.191 269.775 558.311L269.793 558.188C269.309 559.753 268.608 561.295 267.922 562.813C267.252 564.36 266.669 565.904 266.253 567.433C266.268 567.306 266.185 567.212 266.435 566.52C265.716 568.699 264.731 571.695 264.462 571.787C263.566 574.376 262.47 577.485 261.471 580.355C260.615 583.269 259.867 585.962 259.533 587.687L259.54 587.443C259.179 589.428 258.822 589.932 258.28 592.114C258.223 592.219 258.161 592.367 258.149 592.345C257.762 594.491 256.316 598.423 256.03 600.182L255.867 600.255L254.842 604.465L255.268 602.903C255.516 603.543 254.21 606.028 253.698 609.136C253.31 610.56 253.139 612.057 252.944 613.565C252.869 614.307 252.77 615.057 252.64 615.805C252.522 616.573 252.39 617.319 252.194 618.052C252.09 619.514 252.148 616.739 251.855 618.896C251.636 618.922 251.943 617.868 251.654 618.388C251.333 620.497 250.746 621.777 250.337 624.398L250.17 624.464C249.756 627.899 248.63 630.801 248.445 633.096C247.99 636.611 247.597 635.357 247.309 639.064L246.868 640.446C246.583 642.001 246.946 641.61 246.574 643.32C246.446 643.199 246.114 645.493 246.142 644.462C245.727 646.405 245.467 648.415 245.196 650.559C244.909 652.726 244.739 655.047 244.242 657.617C244.376 658.776 243.921 661.369 244.007 662.239C243.875 662.367 243.388 667.471 243.463 664.519C243.488 664.256 243.531 663.818 243.578 663.849L243.458 663.483C243.147 664.941 243.016 666.303 242.935 667.651C242.907 668.32 242.856 669.002 242.81 669.691C242.794 670.383 242.757 671.089 242.704 671.817C242.823 670.947 242.893 669.786 242.934 670.578L242.729 673.3L242.634 672.721L242.258 676.787L242.447 676.246C242.229 678.226 241.888 678.912 241.95 681.179C242.007 682.205 242.316 679.305 242.224 681.404C241.924 684.062 241.383 688.043 241.302 691.447C241.482 691.145 241.447 692.061 241.458 693.004L241.286 693.113C241.411 696.723 240.891 694.423 240.95 698.021L240.854 697.697L241.164 698.654C241.375 701.9 240.779 700.391 241.103 703.992C241.115 702.575 241.485 703.327 241.343 705.082L241.207 704.636C241.206 705.611 241.241 705.93 241.227 706.574C241.133 705.997 240.996 706.269 241.043 707.688L240.825 706.739L241.154 709.424C240.995 711.509 241.233 714.804 241.019 715.66C241.019 715.66 240.96 720.13 241.217 721.146C241.036 720.263 241.007 722.729 240.817 722.036C240.934 722.601 240.977 723.756 241.081 724.914C241.162 726.085 241.204 727.288 241.153 727.97L241.124 727.712C241.177 732.789 241.801 736.352 241.794 740.912C241.986 740.684 242.008 743.086 242.216 742.476C242.852 747.137 242.487 751.058 243.379 752.676C243.609 754.798 243.431 755.214 243.493 756.319L243.405 755.816C243.827 759.798 243.914 760.958 244.31 763.905C244.572 765.367 244.948 765.554 245.208 768.2C244.961 767.366 245.128 768.439 245.256 769.425C245.154 768.798 245.076 768.611 245.153 769.917C245.219 770.094 245.282 770.37 245.339 770.633C245.33 770.644 245.328 770.697 245.309 770.673C245.571 772.311 245.577 772.018 245.496 771.255C245.522 771.289 245.541 771.221 245.55 770.979C245.594 772.711 246.182 775.737 245.975 775.98C246.158 777.215 246.305 778.363 246.517 779.445C246.739 780.522 246.952 781.543 247.158 782.542C247.581 784.534 247.989 786.418 248.384 788.458C248.344 788.937 248.072 788.002 247.821 786.821L248.363 789.716C248.187 789.724 247.98 788.066 247.791 787.179C248.127 790.683 249.236 794.266 249.783 798.344L250.093 799.151L250.124 799.394C250.192 799.37 250.481 800.249 250.631 800.841C250.602 801.441 250.276 800.875 250.709 802.864C250.898 804.469 251.731 807.32 252.247 809.363C252.037 808.248 252.198 808.587 252.351 809.052C252.57 810.047 252.541 810.653 252.766 811.41L252.584 811.551C252.694 811.113 253.342 814.101 253.5 814.451C253.474 815.053 253.046 812.939 252.881 812.715C253.747 816.702 253.328 814.708 254.267 818.67C254.918 820.749 254.365 818.241 254.781 819.208C255.262 821.065 255.838 822.852 256.2 825.025L256.226 824.305C257.164 827.782 257.581 829.902 257.848 832.318C259.442 838.828 259.993 842.535 260.382 844.312C260.761 846.092 260.948 845.942 261.059 844.962C261.16 843.967 261.147 842.115 261.037 840.52C260.943 838.926 260.784 837.588 260.784 837.588C259.619 826.88 257.33 821.754 254.61 809.531Z" fill="#91A784"/>
<path fill-rule="evenodd" clip-rule="evenodd" d="M252.532 794.939C252.899 795.219 253.265 795.502 253.63 795.783C246.682 789.995 238.096 786.166 229.096 784.849C224.775 784.214 219.881 784.316 216.609 787.24C219.904 788.754 223.687 788.68 227.307 789.043C235.517 789.872 243.257 793.055 250.86 796.203L252.532 794.939Z" fill="#809971"/>
<path fill-rule="evenodd" clip-rule="evenodd" d="M224.709 772.388C228.241 772.205 231.745 771.555 235.279 771.531C238.81 771.507 242.492 772.185 245.258 774.347L247.81 771.761C247.768 772.172 248.539 772.123 248.625 771.719C248.712 771.316 248.383 770.954 248.077 770.683C242.605 765.859 234.927 764.096 227.581 764.362C220.236 764.627 213.08 766.723 206.016 768.806C211.821 771.479 218.296 772.721 224.709 772.388Z" fill="#809971"/>
<path fill-rule="evenodd" clip-rule="evenodd" d="M245.266 757.066L247.857 756.959C245.556 756.404 243.489 755.209 241.359 754.206C229.412 748.589 214.674 749.155 203.086 755.679C200.66 757.043 198.292 758.735 196.928 761.148C203.884 762.588 210.503 757.961 217.258 755.658C226.315 752.57 236.374 753.704 245.266 757.066Z" fill="#809971"/>
<path fill-rule="evenodd" clip-rule="evenodd" d="M300.2 735.937C296.069 736.643 291.889 736.955 287.811 737.909C280.95 739.521 274.615 742.881 268.521 746.405C261.171 750.652 253.877 755.307 248.398 761.758L245.256 765.12C253.364 760.88 261.501 756.627 270.092 753.481C277.111 750.914 284.385 749.101 291.497 746.748C300.605 743.738 309.438 739.835 317.812 735.126C322.686 732.386 327.795 728.877 329.245 723.514C320.718 729.854 310.676 734.15 300.2 735.937Z" fill="#809971"/>
<path fill-rule="evenodd" clip-rule="evenodd" d="M276.942 761.198C266.393 764.039 255.391 767.728 248.162 775.938L245.162 778.493C254.526 770.525 268.198 771.167 280.046 767.885C288.181 765.634 295.658 761.404 302.57 756.541C305.16 754.72 307.959 752.033 307.179 749.019C298.577 755.794 287.511 758.343 276.942 761.198Z" fill="#809971"/>
<path fill-rule="evenodd" clip-rule="evenodd" d="M308.351 719.274C298.866 723.676 288.006 723.504 277.686 725.153C265.592 727.078 253.897 731.655 243.695 738.446C230.542 731.589 214.652 730.035 200.309 734.208C204.485 740.405 213.241 741.454 220.737 740.623C228.237 739.792 235.961 737.703 243.153 739.856L243.374 743.738C267.635 728.818 300.4 731.148 322.594 713.266C324.578 711.665 326.578 708.806 324.948 706.868C319.889 711.596 314.643 716.354 308.351 719.274Z" fill="#809971"/>
<path fill-rule="evenodd" clip-rule="evenodd" d="M240.825 719.123C240.824 720.098 240.958 721.051 241.145 721.997C241.259 722.196 241.394 722.382 241.53 722.571C241.438 722.614 241.368 722.646 241.298 722.677C241.232 722.457 241.187 722.225 241.145 721.997C240.628 721.294 240.029 720.652 239.351 720.078C239.875 720.999 240.378 721.934 240.879 722.866C240.74 722.928 240.6 722.991 240.46 723.053L241.008 723.091C241.387 723.809 241.766 724.527 242.144 725.241C241.842 724.556 241.611 723.843 241.408 723.126L241.861 723.152C241.992 723.433 242.121 723.712 242.23 724.006L241.99 723.173L244.04 723.331C244.572 722.418 245.129 721.546 245.726 720.694C244.42 721.276 243.092 721.872 241.787 722.456L240.825 719.123Z" fill="#809971"/>
<path fill-rule="evenodd" clip-rule="evenodd" d="M228.164 706.848C222.368 702.984 215.024 701.904 208.028 702.468C201.031 703.035 194.246 705.136 187.531 707.221C185.847 707.746 183.996 708.4 183.155 709.943C188.065 712.521 193.994 711.804 199.566 711.548C210.394 711.052 221.283 712.587 231.522 716.033C234.303 716.963 237.177 718.211 239.351 720.079C236.43 714.946 233.049 710.086 228.164 706.848Z" fill="#809971"/>
<path fill-rule="evenodd" clip-rule="evenodd" d="M291.551 695.927C274.286 700.121 255.702 706.364 245.727 720.695C251.738 717.999 257.75 715.306 263.784 712.6C271.451 709.167 279.142 705.723 287.163 703.17C297.492 699.89 308.277 698.133 318.377 694.144C328.454 690.167 338.137 683.441 342.366 673.505C329.623 687.338 309.819 691.491 291.551 695.927Z" fill="#809971"/>
<path fill-rule="evenodd" clip-rule="evenodd" d="M241.676 685.991L240.143 687.459C238.078 685.937 236.012 684.415 233.946 682.892C230.209 680.129 226.431 677.344 222.171 675.46C218.577 673.873 214.726 672.965 210.884 672.072C201.094 669.773 191.308 667.474 181.516 665.176C188.601 673.986 198.427 680.577 209.324 683.819C214.081 685.241 219.007 686.034 223.928 686.819C230.132 687.802 236.315 688.8 242.519 689.783L243.326 689.815C243.024 689.591 242.719 689.365 242.415 689.139C246.269 688.51 249.994 685.652 253.542 683.563C263.926 677.453 276.591 677.355 288.407 675.045C301.649 672.464 314.339 666.86 325.195 658.806C328.299 656.501 331.475 653.655 332.124 649.862C305.913 669.476 267.103 665.361 241.676 685.991Z" fill="#809971"/>
<path fill-rule="evenodd" clip-rule="evenodd" d="M290.788 645.115C274.971 648.461 258.238 652.821 246.578 663.675C234.667 659.448 223.617 653.138 211.722 648.835C199.711 644.483 186.225 642.266 174.15 646.67C181.272 647.313 188.476 647.967 195.247 650.203C199.539 651.629 203.617 653.657 207.776 655.466C218.96 660.369 230.894 663.661 243.05 665.235L246.126 664.114C245.081 665.105 244.09 666.138 243.158 667.224L241.826 667.505C254.003 668.243 265.34 661.804 277.15 658.609C283.436 656.911 289.951 656.129 296.22 654.299C313.074 649.381 326.804 637.384 339.935 625.722C326.76 637.77 308.223 641.425 290.788 645.115Z" fill="#809971"/>
<path fill-rule="evenodd" clip-rule="evenodd" d="M210.234 633.479C220.334 642.181 234.559 645.952 247.782 643.443L248.953 642.418C236.3 642.075 225.346 634.186 215.402 626.477C205.458 618.77 194.861 610.583 182.24 609.476C187.825 612.3 192.956 615.97 197.418 620.316C201.831 624.574 205.59 629.482 210.234 633.479Z" fill="#809971"/>
<path fill-rule="evenodd" clip-rule="evenodd" d="M294.388 626.928C288.125 627.691 281.79 627.607 275.593 628.743C265.98 630.504 257.154 635.088 248.58 639.856C263.21 639.458 277.7 636.144 292.043 632.827C299.643 631.074 307.339 629.284 314.399 625.966C321.482 622.637 328 617.596 331.694 610.727C321.168 619.568 308.015 625.282 294.388 626.928Z" fill="#809971"/>
<path fill-rule="evenodd" clip-rule="evenodd" d="M246.025 641.281C246.868 640.81 247.711 640.339 248.578 639.857C246.74 639.917 244.929 639.921 243.094 639.881L246.025 641.281Z" fill="#809971"/>
<path fill-rule="evenodd" clip-rule="evenodd" d="M264.441 612.543C259.653 615.332 255.596 619.199 251.715 623.17L250.92 623.469L251.65 622.594C243.971 620.869 237.353 616.075 231.813 610.556C226.275 605.039 221.577 598.739 216.206 593.054C211.654 588.242 205.948 583.612 199.277 583.71C208.364 590.323 214.36 600.189 221.703 608.67C228.763 616.809 238.263 624.147 248.997 624.2L247.817 624.646C250.429 625.946 253.394 623.86 255.877 622.313C261.662 618.708 268.605 617.598 275.254 616.127C289.874 612.886 304.033 607.499 317.118 600.227C310.449 603.049 302.919 604.206 295.66 605.018C284.944 606.228 273.773 607.103 264.441 612.543Z" fill="#809971"/>
<path fill-rule="evenodd" clip-rule="evenodd" d="M256.424 596.917C256.058 596.891 255.725 596.821 255.375 596.771C255.677 596.891 255.981 597.013 256.322 597.099L256.424 596.917Z" fill="#809971"/>
<path fill-rule="evenodd" clip-rule="evenodd" d="M222.587 571.026C224.68 575.268 226.338 579.825 229.449 583.39C232.662 587.082 237.16 589.383 241.528 591.611C245.931 593.85 250.485 596.096 255.374 596.772C247.785 594.024 243.306 586.206 238.695 579.492C232.444 570.412 224.333 562.174 214.012 558.171C217.402 562.071 220.279 566.406 222.587 571.026Z" fill="#809971"/>
<path fill-rule="evenodd" clip-rule="evenodd" d="M231.107 541.862C230.767 540.853 230.45 539.833 230.135 538.818C230.338 539.894 230.677 540.901 231.107 541.862Z" fill="#809971"/>
<path fill-rule="evenodd" clip-rule="evenodd" d="M244.281 556.374C239.981 551.439 233.697 547.592 231.107 541.862C233.52 549.08 236.653 556.074 241.012 562.292C245.376 568.521 251.064 573.94 257.821 577.436C252.389 571.285 249.767 562.67 244.281 556.374Z" fill="#809971"/>
<path fill-rule="evenodd" clip-rule="evenodd" d="M299.128 559.684C285.005 561.742 271.688 568.967 262.26 579.684L260.846 580.335L260.692 578.781C259.726 578.368 258.767 577.916 257.822 577.436C258.738 578.482 259.734 579.459 260.846 580.335L258.666 581.334C265.302 582.614 270.732 576.331 276.634 572.98C283.265 569.217 291.248 569.062 298.708 567.474C308.519 565.392 317.77 560.631 325.174 553.858C317.728 558.912 308.018 558.398 299.128 559.684Z" fill="#809971"/>
<path fill-rule="evenodd" clip-rule="evenodd" d="M293.941 582.374C280.345 585.306 267.446 591.622 256.778 600.572L256.19 602.159C263.372 601.368 269.656 597.097 276.361 594.286C285.454 590.481 295.386 589.382 304.938 586.947C314.491 584.514 324.216 580.331 329.867 572.277C319.622 579.555 306.209 579.728 293.941 582.374Z" fill="#809971"/>
<path fill-rule="evenodd" clip-rule="evenodd" d="M69.2182 654.757C69.9701 655.163 70.7013 655.525 71.3764 655.915C72.0391 656.328 72.6749 656.723 73.2812 657.103C74.4992 657.866 75.6148 658.569 76.663 659.231C78.7454 660.584 80.6433 661.655 82.376 663.006C85.8891 665.63 89.6257 668.041 95.1073 672.529C96.422 673.59 97.7586 674.665 99.1016 675.752C100.39 676.906 101.685 678.069 102.98 679.227C104.276 680.383 105.568 681.536 106.844 682.674C108.126 683.809 109.274 685.057 110.458 686.209C111.655 687.23 113.185 688.776 114.756 690.376C115.562 691.158 116.321 692.008 117.047 692.827C117.781 693.635 118.495 694.398 119.155 695.055L119.998 696.234C120.907 697.141 121.948 698.23 122.74 699.246L122.651 699.214C122.99 699.552 123.334 699.909 123.663 700.268C123.974 700.644 124.277 701.013 124.565 701.36C125.13 702.056 125.617 702.663 125.938 703.015L125.854 702.983L127.33 704.78L127.027 704.511C129.212 707.039 131.429 709.676 133.129 712.195L133.127 711.88C136.797 717.239 138.578 718.886 141.601 723.925L141.522 723.885C146.141 729.715 147.599 733.894 152.041 740.126C151.492 739.345 152.172 740.524 152.085 740.485C153.88 743.511 155.773 746.76 156.118 746.627C157.391 748.859 157.059 748.496 157.103 748.855C157.218 748.776 158.441 750.647 159.363 752.425L158.876 751.642L161.625 756.687L161.36 755.549C162.716 758.28 161.401 756.403 162.836 758.947L163.04 758.797C165.007 762.526 165.732 764.933 167.387 768.663C174.851 783.864 182.653 800.366 187.842 815.281L187.916 815.999C187.764 816.38 189.835 819.926 189.811 820.578L190.577 822.251C190.709 822.752 191.018 823.795 190.657 822.955C191.212 824.557 191.268 824.58 191.752 825.706L192.196 827.479C193.232 830.664 194.362 833.548 195.384 836.517C196.418 839.483 197.471 842.489 198.536 845.845C199.125 847.879 199.793 850.376 200.615 853.081C201.4 855.795 202.368 858.711 203.213 861.688C204.094 864.652 204.981 867.639 205.809 870.438C206.661 873.228 207.351 875.857 207.988 878.063C209.865 884.245 211.281 891.091 212.749 897.953C213.425 901.397 214.102 904.849 214.817 908.241C215.548 911.628 216.185 914.985 216.967 918.197C217.013 918.625 217.318 919.701 217.349 919.685C218.162 923.634 218.819 927.613 219.547 931.577C219.547 931.577 219.711 932.478 219.986 933.97C220.272 935.46 220.623 937.547 221.026 939.914C221.843 944.641 222.858 950.486 223.636 954.978C225.209 963.932 226.353 967.364 224.067 945.118L224.174 945.404C223.239 938.831 222.592 934.699 221.443 930.254C221.677 929.476 220.499 924.886 220.337 923.333L220.392 923.473C219.342 919.551 218.987 915.245 217.975 911.465C218.032 911.61 218.15 911.671 218.331 912.55C217.752 909.765 216.798 905.991 216.973 905.737C216.194 902.427 215.391 898.437 214.477 894.785C213.575 891.126 212.711 887.775 212.04 885.701L212.166 885.975C211.375 883.619 211.345 882.871 210.542 880.214C210.533 880.06 210.496 879.867 210.517 879.895C209.602 877.339 208.524 872.264 207.823 870.191L207.922 870.016L206.433 864.845L206.948 866.791C206.381 866.224 206.08 862.806 204.777 859.117C203.766 855.607 201.845 852.269 200.925 848.588C200.224 846.915 201.675 850.023 200.753 847.481C200.922 847.335 201.242 848.649 201.197 847.935C200.336 845.422 200.054 843.727 198.915 840.655L199.025 840.479C198.22 838.493 197.642 836.565 197.122 834.802C196.597 833.039 196.072 831.466 195.477 830.169C193.888 826.059 194.938 827.225 193.12 823L192.723 821.247C192.059 819.396 191.974 820.021 191.301 817.95C191.475 818.025 190.428 815.336 191 816.486C190.226 814.143 189.27 811.826 188.259 809.327C187.195 806.845 186.067 804.183 185.012 801.105C184.231 799.901 183.169 796.804 182.541 795.926C182.578 795.721 179.946 789.912 181.642 793.18C181.786 793.46 182.002 793.975 181.948 793.956L182.267 794.297C181.056 790.784 179.438 788.185 178.004 784.812C178.404 785.823 178.983 787.148 178.504 786.305C178.069 785.256 177.588 784.229 177.113 783.197L177.533 783.784L175.461 779.152L175.61 779.852C174.639 777.568 174.518 776.657 173.13 774.217C172.478 773.124 173.923 776.443 172.77 774.089C171.435 771.051 169.341 766.538 167.507 762.716C167.515 763.157 167.03 762.125 166.452 761.103L166.53 760.909C164.218 757.04 166.065 759.291 163.809 755.431L164.093 755.725L163.245 754.841C161.061 751.441 162.544 752.748 159.999 749.036C160.905 750.559 160.108 749.931 159.086 748.008L159.493 748.412C158.866 747.381 158.609 747.063 158.239 746.352C158.668 746.933 158.623 746.572 157.718 745.046L158.475 745.981L156.565 743.214C155.992 742.051 155.153 740.604 154.41 739.321C153.658 738.045 152.959 736.958 152.779 736.446C152.779 736.446 149.934 731.658 149.061 730.699C149.776 731.572 148.206 728.933 148.813 729.582C147.957 728.414 145.422 724.98 144.627 723.458L144.824 723.716C143.119 721.055 141.618 718.812 140.029 716.726C138.431 714.647 136.886 712.636 135.299 710.286C135.304 710.605 133.61 708.133 133.861 708.871C130.084 704.394 127.548 700.226 125.677 699.032C123.903 697.042 123.718 696.553 122.835 695.494L123.285 695.943C121.608 694.093 120.524 692.899 119.549 691.823C118.575 690.75 117.752 689.751 116.43 688.447C115.075 687.179 114.628 687.206 112.357 684.791C113.206 685.46 112.238 684.511 111.364 683.628C111.937 684.176 112.144 684.318 111.061 683.094C110.872 682.96 110.604 682.726 110.354 682.504C110.352 682.487 110.315 682.434 110.347 682.448C108.856 681.009 109.081 681.296 109.746 681.993C109.696 681.974 109.736 682.049 109.918 682.289C108.527 680.636 105.491 678.252 105.473 677.888C104.3 676.862 103.211 675.908 102.177 675C101.655 674.552 101.149 674.116 100.649 673.688C100.126 673.294 99.6128 672.903 99.1058 672.518C97.078 670.982 95.1552 669.527 93.0942 667.964C92.713 667.507 93.7225 668.178 94.9283 669.085L92.0285 666.818C92.1562 666.699 93.738 668.062 94.6439 668.744C93.8306 668.003 92.9712 667.293 92.0832 666.594C91.1878 665.895 90.1974 665.296 89.2196 664.638C87.2517 663.344 85.2076 661.999 83.1739 660.415L82.2282 659.916C82.1502 659.85 82.0655 659.791 81.9832 659.731C81.9567 659.799 80.9216 659.283 80.2557 658.906C79.7166 658.404 80.4853 658.643 78.3051 657.328C77.4836 656.743 76.2526 656.016 74.9372 655.273C73.6223 654.534 72.2551 653.734 71.0432 653.203C72.293 653.879 71.8438 653.74 71.2755 653.506C70.1474 652.924 69.5677 652.456 68.6649 652.061L68.651 651.828C69.0073 652.226 65.6028 650.48 65.1509 650.339C64.5736 649.871 66.9593 651.131 67.2945 651.177C65.0231 650.013 64.4551 649.721 63.8899 649.431C63.6046 649.284 63.3221 649.14 62.8239 648.887C62.3355 648.612 61.6085 648.285 60.4316 647.794C57.8683 646.853 60.8067 648.162 59.5372 647.81C57.319 646.894 55.1181 646.097 52.6374 644.896L53.3722 645.407C52.3194 645.011 51.4016 644.575 50.5109 644.298C49.627 643.995 48.8238 643.718 48.0601 643.458C46.5397 642.914 45.2069 642.395 43.8037 641.81C39.819 640.5 36.5968 639.945 34.1703 639.424C31.7389 638.923 30.0574 638.612 28.9533 638.447C26.747 638.13 26.8463 638.408 27.9941 638.825C30.2421 639.76 36.5142 641.598 36.5142 641.598C39.6635 642.452 42.3057 643.586 44.8691 644.447C46.1493 644.885 47.3908 645.313 48.6243 645.738L50.4722 646.365C51.0721 646.613 51.6745 646.861 52.2821 647.11C54.7142 648.1 57.2221 649.118 60.0194 650.255C60.3693 650.399 60.7223 650.547 61.0802 650.695C61.4285 650.867 61.7821 651.04 62.1384 651.216C62.8541 651.572 63.5885 651.938 64.349 652.313C65.8667 653.077 67.48 653.886 69.2182 654.757Z" fill="#91A784"/>
<path fill-rule="evenodd" clip-rule="evenodd" d="M176.427 792.972C176.228 781.499 151.472 772.735 142.104 770.8C128.426 767.976 113.922 769.544 100.565 765.562C90.4673 762.549 80.5936 756.365 70.1884 758.295C82.9833 764.781 95.8208 771.187 108.703 777.508C118.923 782.52 129.391 787.552 140.745 789.155C152.78 790.855 164.552 790.384 176.427 792.972Z" fill="#809971"/>
<path fill-rule="evenodd" clip-rule="evenodd" d="M165.266 756.271C169.978 745.264 171.031 731.736 172.897 719.942C174.055 712.618 175.217 705.261 175.231 697.848C175.262 685.166 171.947 672.742 168.635 660.501C170.529 672.156 170.453 684.13 168.409 695.761C166.656 705.731 163.481 715.417 161.96 725.423C160.294 736.395 162.068 745.886 165.266 756.271Z" fill="#809971"/>
<path fill-rule="evenodd" clip-rule="evenodd" d="M177.451 780.448C185.283 769.469 189.068 755.178 193.535 742.877C196.311 735.243 199.094 727.571 200.478 719.647C202.842 706.089 201.039 692.245 199.205 678.594C199.399 691.379 197.102 704.17 192.444 716.266C188.454 726.63 182.758 736.456 179.047 746.902C174.974 758.355 175.416 768.802 177.451 780.448Z" fill="#809971"/>
<path fill-rule="evenodd" clip-rule="evenodd" d="M129.665 750.957C134.035 751.35 151.338 757.376 154.473 755.595C159.32 752.84 145.35 747.363 142.797 746.344C129.685 741.115 115.283 739.534 101.257 738.256C87.8857 737.037 74.4958 735.952 61.0762 735.373C74.0655 736.974 85.164 745.146 97.8361 748.3C108.159 750.87 119.043 750.002 129.665 750.957Z" fill="#809971"/>
<path fill-rule="evenodd" clip-rule="evenodd" d="M132.703 698.372C136.158 692.437 136.101 675.188 136.558 667.724C137.456 653.011 135.509 636.888 127.452 625.391C131.175 630.7 129.115 649.319 128.861 655.645C128.451 665.808 127.495 675.901 127.387 686.102C127.338 690.589 128.254 706.021 132.703 698.372Z" fill="#809971"/>
<path fill-rule="evenodd" clip-rule="evenodd" d="M18.1876 632.967C29.7158 639.043 21.4166 624.215 16.8206 620.609C11.9545 616.797 6.01732 614.661 0.195312 612.587C4.07876 619.999 10.5881 628.959 18.1876 632.967Z" fill="#809971"/>
<path fill-rule="evenodd" clip-rule="evenodd" d="M51.2675 646.885C45.9549 640.232 43.8444 631.672 41.0442 623.632C38.2437 615.589 34.1438 607.295 26.6442 603.267C28.6674 611.041 30.9451 618.814 34.6279 625.956C36.8386 630.242 42.4902 634.711 44.0203 638.864C45.9881 644.193 41.2136 643.341 36.2248 644.026C30.5293 644.81 24.9345 646.167 19.5433 648.18C14.8297 649.939 9.95552 654.133 5.26669 655.325C20.3896 651.488 35.7682 648.669 51.2675 646.885Z" fill="#809971"/>
<path fill-rule="evenodd" clip-rule="evenodd" d="M71.6797 650.018C69.7475 635.958 58.1071 625.403 51.7773 613.578C53.9211 617.585 54.4166 622.235 55.5044 626.647C57.2136 633.579 63.045 649.266 71.6797 650.018Z" fill="#809971"/>
<path fill-rule="evenodd" clip-rule="evenodd" d="M86.1585 662.5C82.6739 653.67 82.8813 643.705 81.6286 634.409C80.3363 624.834 77.3014 614.776 69.7345 608.771C73.2267 615.887 71.637 624.305 72.139 632.216C72.5174 638.179 74.194 644.041 76.9401 649.344C79.3584 654.016 84.3803 657.876 86.1585 662.5Z" fill="#809971"/>
<path fill-rule="evenodd" clip-rule="evenodd" d="M101.99 663.121C103.723 659.388 102.043 648.618 102.155 644.317C102.302 638.479 102.345 632.613 101.203 626.857C99.9833 620.714 97.4572 614.869 94.1379 609.555C94.211 620.374 94.2795 631.197 94.35 642.017C94.3872 647.785 93.716 655.496 96.2305 660.885C98.205 665.117 100.213 666.939 101.99 663.121Z" fill="#809971"/>
<path fill-rule="evenodd" clip-rule="evenodd" d="M113.741 679.72C116.028 679.615 117.309 655.224 117.742 651.238C119.133 638.392 118.947 624.373 111.356 613.917C113.04 623.072 112.598 632.607 110.079 641.568C108.961 645.533 107.44 649.404 106.765 653.471C106.067 657.694 106.497 680.055 113.741 679.72Z" fill="#809971"/>
<path fill-rule="evenodd" clip-rule="evenodd" d="M149.478 725.978C152.005 717.221 151.554 704.927 152.549 695.436C154.31 678.612 155.214 660.82 149.375 644.946C150.938 656.653 150.569 668.621 148.287 679.977C146.406 689.333 137.413 720.545 149.478 725.978Z" fill="#809971"/>
<path fill-rule="evenodd" clip-rule="evenodd" d="M39.5593 660.155C37.1781 661.291 35.0114 662.827 32.5885 663.869C28.7529 665.519 24.511 665.845 20.295 665.954C27.4332 665.972 34.758 667.458 41.3952 665.001C44.3867 663.894 47.0382 662.038 50.0224 660.912C54.6148 659.183 59.7902 659.259 64.3084 657.354C59.9842 656.469 55.5416 656.12 51.1174 656.322L56.0392 656.912C50.3882 657.249 44.6286 657.74 39.5593 660.155Z" fill="#809971"/>
<path fill-rule="evenodd" clip-rule="evenodd" d="M85.9639 669.306C74.4958 667.004 61.5739 668.067 50.3627 670.141C47.121 670.739 43.803 671.529 41.3242 673.369C39.5538 674.679 38.3293 676.446 36.6688 677.858C32.0033 681.821 24.7544 682.421 18.0887 682.811C30.0747 683.548 41.3404 679.11 52.2015 675.094C62.8431 671.161 73.9986 667.748 85.9639 669.306Z" fill="#809971"/>
<path fill-rule="evenodd" clip-rule="evenodd" d="M70.9457 724.576C77.8979 724.625 84.8316 724.201 91.5287 722.451C95.476 721.421 110.512 727.213 114.528 726.476C123.869 724.766 132.479 727.513 141.401 729.642C140.823 724.468 116.1 714.786 111.637 714.515C97.6821 713.665 84.4184 722.819 70.9457 724.576Z" fill="#809971"/>
<path fill-rule="evenodd" clip-rule="evenodd" d="M91.8143 703.183C103.676 701.727 116.05 701.315 126.911 706.078C119.327 701.406 113.955 697.137 103.898 697.083C97.0078 697.05 90.2075 698.51 83.4015 699.582C69.3855 701.791 55.1373 702.366 40.9414 702.717C46.3052 703.227 51.4725 704.69 56.8075 705.37C68.3786 706.85 80.1684 704.609 91.8143 703.183Z" fill="#809971"/>
<path fill-rule="evenodd" clip-rule="evenodd" d="M72.9483 681.9C70.8047 682.816 68.9467 684.085 67.0029 685.244C59.268 689.847 49.8599 692.732 40.2731 693.446C54.2725 693.504 68.3839 691.623 81.7182 687.92C89.129 685.865 95.9543 683.799 103.849 683.776C102.014 680.675 93.3461 680.599 89.3418 680.26C83.8205 679.79 77.9051 679.786 72.9483 681.9Z" fill="#809971"/>
<path fill-rule="evenodd" clip-rule="evenodd" d="M188.983 793.158L188.982 793.043C188.981 793.081 188.984 793.12 188.984 793.16C188.676 796.279 188.662 799.422 189.069 802.583L189.002 795.303C189.127 800.126 189.791 804.933 190.989 809.606C190.392 803.635 194.691 798.464 197.866 793.374C203.044 785.073 205.632 775.462 208.153 766.01C212.11 751.158 216.028 735.146 210.637 720.754C212.293 734.966 205.909 748.745 199.723 761.647C194.917 771.677 190.058 782.273 188.983 793.158Z" fill="#809971"/>
<path fill-rule="evenodd" clip-rule="evenodd" d="M194.39 844.3C187.112 838.352 176.577 837.86 167.033 839.224C157.485 840.59 148.058 843.525 138.456 843.412C144.233 849.236 152.88 851.464 161.243 852.08C169.607 852.698 178.091 851.95 186.405 852.938C193.638 853.799 201.94 856.222 206.648 861.921C205.041 858.68 203.201 855.537 201.229 852.497C199.291 849.504 197.165 846.571 194.39 844.3Z" fill="#809971"/>
<path fill-rule="evenodd" clip-rule="evenodd" d="M230.628 775.922C227.476 788.419 218.581 799.49 212.02 811.155C205.456 822.819 201.249 836.657 207.791 847.825L207.779 854.603C208.157 846.644 208.585 838.501 212.155 830.991C214.785 825.469 219.001 820.538 222.344 815.268C230.035 803.153 232.986 789.128 230.628 775.922Z" fill="#809971"/>
<path fill-rule="evenodd" clip-rule="evenodd" d="M223.37 839.433C218.858 845.607 214.395 851.947 211.75 859.123C210.736 861.868 208.084 868.742 209.475 871.594C211.511 875.759 213.279 868.896 214.074 866.79C217.491 857.783 220.589 848.656 223.37 839.433Z" fill="#809971"/>
<path fill-rule="evenodd" clip-rule="evenodd" d="M195.177 876.573C191.3 874.841 187.066 874.117 182.916 873.227C179.938 872.589 176.984 871.859 174.051 871.038C179.247 872.493 186.475 879.955 191.542 882.786C197.384 886.05 203.152 890.253 209.065 893.122C207.91 885.989 201.65 879.465 195.177 876.573Z" fill="#809971"/>
<path fill-rule="evenodd" clip-rule="evenodd" d="M223.535 870.174C220.337 876.609 212.896 896.743 220.273 902.18C222.031 899.078 223.029 894.873 224.123 891.346C226.77 882.817 227.949 873.837 227.594 864.915C225.724 866.148 224.533 868.165 223.535 870.174Z" fill="#809971"/>
<path fill-rule="evenodd" clip-rule="evenodd" d="M221.621 924.209C225.193 922.806 228.363 918.017 229.961 914.468C231.568 910.914 229.992 904.532 231.334 902.017C228.361 907.59 220.137 917.629 221.621 924.209Z" fill="#809971"/>
<path fill-rule="evenodd" clip-rule="evenodd" d="M178.322 818.079C182.916 821.728 185.5 827.34 190.149 830.925C187.824 826.082 185.502 821.238 183.179 816.394C183.113 816.26 183.041 816.124 182.972 815.986L183.212 816.153C180.287 808.153 171.322 803.578 162.614 802.46C153.904 801.344 145.083 802.915 136.3 803.27C128.132 803.599 119.924 802.867 111.971 801.105C124.332 807.238 137.981 810.954 151.861 811.971C161.074 812.648 171.2 812.424 178.322 818.079Z" fill="#809971"/>
</svg>
